<?xml version="1.0" standalone="no"?>
<!DOCTYPE svg PUBLIC "-//W3C//DTD SVG 20010904//EN"
 "http://www.w3.org/TR/2001/REC-SVG-20010904/DTD/svg10.dtd">
<svg version="1.0" xmlns="http://www.w3.org/2000/svg"
 width="1600.000000pt" height="1600.000000pt" viewBox="0 0 1600.000000 1600.000000"
 preserveAspectRatio="xMidYMid meet">

<g transform="translate(0.000000,1600.000000) scale(0.100000,-0.100000)"
fill="#000000" stroke="none">
<path d="M7680 15674 c-205 -12 -499 -38 -665 -60 -1501 -195 -2884 -821
-4055 -1833 -186 -161 -580 -555 -741 -741 -1471 -1700 -2123 -3869 -1828
-6075 179 -1336 724 -2623 1563 -3695 825 -1053 1911 -1878 3143 -2389 l121
-50 56 19 c120 41 198 90 291 184 68 68 100 110 128 166 67 134 67 131 67 947
l0 731 -522 4 c-488 4 -531 6 -636 26 -335 66 -609 206 -827 426 -185 186
-229 265 -432 776 -121 304 -188 444 -281 585 -66 99 -194 237 -316 339 -105
89 -157 201 -158 348 -2 101 18 145 96 224 96 96 198 129 371 121 130 -6 207
-28 347 -98 286 -144 518 -341 799 -679 261 -314 395 -419 609 -477 122 -33
867 -25 1128 12 245 35 268 47 391 209 54 72 113 144 130 160 17 17 31 33 31
37 0 3 -48 17 -107 29 -241 50 -576 151 -823 247 -134 52 -404 181 -534 255
-714 405 -1200 1004 -1412 1741 -76 266 -113 516 -121 832 -6 235 3 382 38
595 62 383 202 749 411 1077 l58 93 -25 100 c-127 501 -179 975 -144 1326 38
397 162 671 399 883 l72 64 171 -6 c611 -23 1091 -182 1616 -535 l155 -103
115 40 c526 182 1044 266 1641 266 598 0 1115 -84 1642 -267 l117 -40 105 78
c322 242 710 416 1111 499 175 36 324 53 543 61 l183 7 100 -99 c146 -146 224
-271 287 -464 58 -176 80 -312 89 -545 12 -324 -38 -711 -148 -1148 l-29 -118
50 -86 c232 -391 382 -819 442 -1253 20 -143 16 -601 -6 -765 -50 -375 -135
-662 -286 -970 -139 -283 -279 -481 -505 -714 -470 -483 -1082 -808 -1909
-1016 l-249 -62 45 -49 c129 -140 262 -343 378 -579 128 -260 200 -469 256
-745 51 -251 54 -308 54 -1245 0 -560 4 -893 11 -935 39 -242 213 -440 453
-516 l80 -25 145 63 c206 88 626 300 821 414 1121 656 2076 1584 2740 2664
942 1530 1321 3279 1095 5040 -194 1501 -820 2888 -1834 4060 -161 186 -555
580 -741 741 -1273 1101 -2777 1736 -4445 1874 -178 15 -770 27 -915 19z"/>
</g>
</svg>
