<?xml version="1.0" standalone="no"?>
<!DOCTYPE svg PUBLIC "-//W3C//DTD SVG 20010904//EN"
 "http://www.w3.org/TR/2001/REC-SVG-20010904/DTD/svg10.dtd">
<svg version="1.0" xmlns="http://www.w3.org/2000/svg"
 width="512.000000pt" height="512.000000pt" viewBox="0 0 512.000000 512.000000"
 preserveAspectRatio="xMidYMid meet">

<g transform="translate(0.000000,512.000000) scale(0.100000,-0.100000)"
fill="#000000" stroke="none">
<path d="M1745 4889 c-123 -16 -313 -67 -439 -119 -222 -92 -394 -207 -571
-385 -257 -256 -409 -539 -485 -900 -27 -130 -38 -402 -21 -541 87 -713 594
-1303 1279 -1490 481 -131 993 -54 1412 214 l95 61 116 -116 116 -115 -10 -39
c-20 -81 -22 -79 570 -671 302 -301 561 -552 576 -557 36 -14 88 -14 124 0 36
13 358 333 378 375 19 41 19 97 0 138 -8 17 -261 277 -563 578 -486 485 -552
548 -590 558 -28 7 -54 8 -76 2 -33 -10 -35 -9 -149 107 l-116 116 55 85 c271
413 352 938 220 1422 -50 182 -124 345 -234 509 -280 418 -717 693 -1215 764
-111 16 -360 18 -472 4z m471 -104 c702 -105 1264 -652 1389 -1353 9 -48 18
-145 22 -217 16 -358 -80 -694 -288 -1004 -38 -57 -69 -110 -67 -118 2 -8 64
-75 138 -148 l135 -135 -117 -117 -118 -118 -107 108 -108 108 47 45 c60 56
72 78 59 103 -10 18 -32 31 -52 31 -6 0 -31 -20 -57 -44 -150 -140 -391 -282
-593 -349 -187 -63 -307 -81 -524 -81 -209 0 -300 12 -474 64 -625 186 -1091
735 -1171 1383 -18 139 -8 402 20 532 133 626 602 1120 1212 1275 196 51 455
64 654 35z m2041 -3538 c472 -472 543 -546 543 -572 0 -25 -26 -55 -163 -192
-137 -137 -167 -163 -192 -163 -26 0 -100 71 -572 543 -419 418 -543 548 -543
566 0 35 326 361 361 361 18 0 148 -124 566 -543z"/>
</g>
</svg>
